<svg xmlns="http://www.w3.org/2000/svg" viewBox="0 0 100 100">
  <!-- Black background with rounded corners -->
  <rect width="100" height="100" rx="16" fill="#0a0a0a"/>
  
  <!-- Portal rings - concentric circles creating depth illusion -->
  <circle cx="50" cy="50" r="42" fill="none" stroke="white" stroke-width="1.5" opacity="0.2"/>
  <circle cx="50" cy="50" r="34" fill="none" stroke="white" stroke-width="1.5" opacity="0.3"/>
  <circle cx="50" cy="50" r="26" fill="none" stroke="white" stroke-width="2" opacity="0.5"/>
  <circle cx="50" cy="50" r="18" fill="none" stroke="white" stroke-width="2" opacity="0.7"/>
  <circle cx="50" cy="50" r="10" fill="none" stroke="white" stroke-width="2.5" opacity="0.9"/>
  
  <!-- Center portal core - bright white -->
  <circle cx="50" cy="50" r="4" fill="white"/>
  
  <!-- Subtle glow effect around center -->
  <circle cx="50" cy="50" r="8" fill="white" opacity="0.15"/>
  
  <!-- Spiral arms suggesting vortex motion -->
  <path d="M50 50 Q65 35, 75 50 Q65 65, 50 50" fill="none" stroke="white" stroke-width="1.5" opacity="0.4"/>
  <path d="M50 50 Q35 65, 25 50 Q35 35, 50 50" fill="none" stroke="white" stroke-width="1.5" opacity="0.4"/>
  
  <!-- Radiating lines for energy effect -->
  <line x1="50" y1="8" x2="50" y2="16" stroke="white" stroke-width="1" opacity="0.3"/>
  <line x1="50" y1="84" x2="50" y2="92" stroke="white" stroke-width="1" opacity="0.3"/>
  <line x1="8" y1="50" x2="16" y2="50" stroke="white" stroke-width="1" opacity="0.3"/>
  <line x1="84" y1="50" x2="92" y2="50" stroke="white" stroke-width="1" opacity="0.3"/>
</svg>
